<svg xmlns="http://www.w3.org/2000/svg" viewBox="0 0 688.7 688.7"><defs><style>.cls-1{fill:#fff;}.cls-2{fill:#4e73df;}</style></defs><g id="Layer_2" data-name="Layer 2"><g id="Layer_1-2" data-name="Layer 1"><circle class="cls-1" cx="344.35" cy="344.35" r="344.35"/><path d="M369.09,346.25c9.08-4.27,16.08-7.09,22.63-10.74,25.83-14.38,37.51-40.84,31.25-70-6.11-28.47-26.34-48.27-55.54-49.8-32.21-1.7-64.57-.39-98.7-.39v-75.6c59.62-.19,120.39-6.85,175.21,26.89,47.07,29,60.43,74.59,57.46,126.36-2.76,48.07-26.46,82.69-70.57,103.27-10.49,4.89-17.12,4.05-24.34-5.49C395.34,376,382.74,362.33,369.09,346.25Z"/><path d="M162.5,548.61V248.81h75.58c0,26.53.93,52.48-.34,78.33-.8,16.28,3.26,28.88,15,40.41,12.14,11.95,22.54,25.65,36.71,42.08H238.17v139Z"/><path class="cls-2" d="M526.2,549.6c-33.1,0-61.09.23-89.08-.25-4.22-.07-9.64-2.39-12.4-5.53C367.93,479.29,311.46,414.5,251.29,345.6c35,0,65.46-.22,95.88.32,3.29.05,7.1,4,9.67,7C412.14,416.94,467.29,481.11,526.2,549.6Z"/><path class="cls-2" d="M232,210.53H165.09V145.14H232Z"/></g></g></svg>